# xmcd
#
# Track frame offsets:
#	150
#	17780
#	35820
#	50365
#	62290
#	75560
#	90065
#	105997
#	126855
#	141080
#	158945
#	173817
#	193452
#	208157
#	221967
#	235355
#	249950
#	264937
#	284815
#	302685
#
# Disc length: 4238 seconds
#
# Revision: 1
# Processed by: cddbd v1.5PL3 Copyright (c) Steve Scherf et al.
# Submitted via: EasyCDDAExtractor 7.0.0.1
#
DISCID=1d108c14
DTITLE=Kari Tapio - Olen Suomalainen
DYEAR=1995
DGENRE=Iskelmä
TTITLE0=Olen Suomalainen
TTITLE1=Aikaan Täysikuun
TTITLE2=Portugalin Huhtikuu
TTITLE3=Amado Mio
TTITLE4=Etkö Uskalla Mua Rakastaa
TTITLE5=Muistojeni Julia
TTITLE6=Olet Kaikki
TTITLE7=Tanssi Loppuun Rakkauden
TTITLE8=Lottovoitto On Syntyä Suomeen
TTITLE9=Mua Paina Syleilyys
TTITLE10=Delfiinipoika
TTITLE11=Yön Tuuli Vain
TTITLE12=Tyttö Metsässä
TTITLE13=Hiljainen Kitara
TTITLE14=Johnny, Mua Muistathan
TTITLE15=Anna
TTITLE16=Milloin Saapuu Hän
TTITLE17=Kaipuu
TTITLE18=Laula Kanssain
TTITLE19=Viisitoista Kesää
EXTD=
EXTT0=
EXTT1=
EXTT2=
EXTT3=
EXTT4=
EXTT5=
EXTT6=
EXTT7=
EXTT8=
EXTT9=
EXTT10=
EXTT11=
EXTT12=
EXTT13=
EXTT14=
EXTT15=
EXTT16=
EXTT17=
EXTT18=
EXTT19=
PLAYORDER=
